<mxfile host="app.diagrams.net" agent="Mozilla/5.0 (X11; Linux x86_64) AppleWebKit/537.36 (KHTML, like Gecko) Chrome/131.0.0.0 Safari/537.36" version="26.0.5">
  <diagram name="Page-1" id="6lhcVRIQe2DY9xGinTSk">
    <mxGraphModel dx="1235" dy="1546" grid="1" gridSize="10" guides="1" tooltips="1" connect="1" arrows="1" fold="1" page="0" pageScale="1" pageWidth="1390" pageHeight="980" math="0" shadow="0">
      <root>
        <mxCell id="0" />
        <mxCell id="1" parent="0" />
        <mxCell id="knSOr63fwJM2YxoM46Qa-2" value="Admin" style="rounded=0;whiteSpace=wrap;html=1;fillColor=#a2d4e6;strokeColor=#63919f;" parent="1" vertex="1">
          <mxGeometry x="470" y="-370" width="100" height="60" as="geometry" />
        </mxCell>
        <mxCell id="knSOr63fwJM2YxoM46Qa-3" value="&lt;u&gt;AdminID&lt;/u&gt;" style="ellipse;whiteSpace=wrap;html=1;fillColor=#f8cecc;strokeColor=#b85450;" parent="1" vertex="1">
          <mxGeometry x="350" y="-400" width="60" height="40" as="geometry" />
        </mxCell>
        <mxCell id="knSOr63fwJM2YxoM46Qa-4" parent="1" source="knSOr63fwJM2YxoM46Qa-2" target="knSOr63fwJM2YxoM46Qa-3" edge="1">
          <mxGeometry relative="1" as="geometry" />
        </mxCell>
        <mxCell id="knSOr63fwJM2YxoM46Qa-5" value="aUsername" style="ellipse;whiteSpace=wrap;html=1;fillColor=#f8cecc;strokeColor=#b85450;" parent="1" vertex="1">
          <mxGeometry x="400" y="-450" width="60" height="40" as="geometry" />
        </mxCell>
        <mxCell id="knSOr63fwJM2YxoM46Qa-6" parent="1" source="knSOr63fwJM2YxoM46Qa-2" target="knSOr63fwJM2YxoM46Qa-5" edge="1">
          <mxGeometry relative="1" as="geometry" />
        </mxCell>
        <mxCell id="knSOr63fwJM2YxoM46Qa-7" value="Email" style="ellipse;whiteSpace=wrap;html=1;fillColor=#f8cecc;strokeColor=#b85450;" parent="1" vertex="1">
          <mxGeometry x="490" y="-480" width="60" height="40" as="geometry" />
        </mxCell>
        <mxCell id="knSOr63fwJM2YxoM46Qa-8" parent="1" source="knSOr63fwJM2YxoM46Qa-2" target="knSOr63fwJM2YxoM46Qa-7" edge="1">
          <mxGeometry relative="1" as="geometry" />
        </mxCell>
        <mxCell id="knSOr63fwJM2YxoM46Qa-9" value="aPassword" style="ellipse;whiteSpace=wrap;html=1;fillColor=#f8cecc;strokeColor=#b85450;" parent="1" vertex="1">
          <mxGeometry x="585" y="-430" width="60" height="40" as="geometry" />
        </mxCell>
        <mxCell id="knSOr63fwJM2YxoM46Qa-10" parent="1" source="knSOr63fwJM2YxoM46Qa-2" target="knSOr63fwJM2YxoM46Qa-9" edge="1">
          <mxGeometry relative="1" as="geometry" />
        </mxCell>
        <mxCell id="knSOr63fwJM2YxoM46Qa-11" value="Manages" style="rhombus;whiteSpace=wrap;html=1;fillColor=#ffff88;strokeColor=#36393d;" parent="1" vertex="1">
          <mxGeometry x="690" y="-370" width="80" height="60" as="geometry" />
        </mxCell>
        <mxCell id="knSOr63fwJM2YxoM46Qa-12" value="Category" style="rounded=0;whiteSpace=wrap;html=1;fillColor=#a2d4e6;strokeColor=#63919f;" parent="1" vertex="1">
          <mxGeometry x="910" y="-15" width="100" height="60" as="geometry" />
        </mxCell>
        <mxCell id="knSOr63fwJM2YxoM46Qa-13" value="CategoryID" style="ellipse;whiteSpace=wrap;html=1;fillColor=#f8cecc;strokeColor=#b85450;" parent="1" vertex="1">
          <mxGeometry x="870" y="75" width="60" height="40" as="geometry" />
        </mxCell>
        <mxCell id="knSOr63fwJM2YxoM46Qa-14" parent="1" source="knSOr63fwJM2YxoM46Qa-12" target="knSOr63fwJM2YxoM46Qa-13" edge="1">
          <mxGeometry relative="1" as="geometry" />
        </mxCell>
        <mxCell id="knSOr63fwJM2YxoM46Qa-15" value="CategoryName" style="ellipse;whiteSpace=wrap;html=1;fillColor=#f8cecc;strokeColor=#b85450;" parent="1" vertex="1">
          <mxGeometry x="950" y="75" width="90" height="50" as="geometry" />
        </mxCell>
        <mxCell id="knSOr63fwJM2YxoM46Qa-16" style="exitX=0.6;exitY=0.971;exitDx=0;exitDy=0;exitPerimeter=0;" parent="1" source="knSOr63fwJM2YxoM46Qa-12" target="knSOr63fwJM2YxoM46Qa-15" edge="1">
          <mxGeometry relative="1" as="geometry">
            <mxPoint x="1000" y="211" as="sourcePoint" />
          </mxGeometry>
        </mxCell>
        <mxCell id="viwkElXMkvqY3WvH5bWG-11" style="edgeStyle=orthogonalEdgeStyle;rounded=0;orthogonalLoop=1;jettySize=auto;html=1;endArrow=none;endFill=0;" parent="1" source="knSOr63fwJM2YxoM46Qa-17" target="knSOr63fwJM2YxoM46Qa-91" edge="1">
          <mxGeometry relative="1" as="geometry">
            <mxPoint x="1120" y="-190" as="targetPoint" />
          </mxGeometry>
        </mxCell>
        <mxCell id="viwkElXMkvqY3WvH5bWG-37" style="rounded=0;orthogonalLoop=1;jettySize=auto;html=1;entryX=1;entryY=0.5;entryDx=0;entryDy=0;endArrow=none;endFill=0;" parent="1" source="knSOr63fwJM2YxoM46Qa-17" target="viwkElXMkvqY3WvH5bWG-40" edge="1">
          <mxGeometry relative="1" as="geometry">
            <mxPoint x="650" y="-140" as="targetPoint" />
          </mxGeometry>
        </mxCell>
        <mxCell id="XFWJKoRLsI-GRv0qEJuy-27" style="edgeStyle=orthogonalEdgeStyle;rounded=0;orthogonalLoop=1;jettySize=auto;html=1;entryX=1;entryY=0.5;entryDx=0;entryDy=0;endArrow=none;endFill=0;" edge="1" parent="1" source="knSOr63fwJM2YxoM46Qa-17" target="XFWJKoRLsI-GRv0qEJuy-25">
          <mxGeometry relative="1" as="geometry" />
        </mxCell>
        <mxCell id="XFWJKoRLsI-GRv0qEJuy-34" style="rounded=0;orthogonalLoop=1;jettySize=auto;html=1;" edge="1" parent="1" source="knSOr63fwJM2YxoM46Qa-17" target="XFWJKoRLsI-GRv0qEJuy-33">
          <mxGeometry relative="1" as="geometry" />
        </mxCell>
        <mxCell id="knSOr63fwJM2YxoM46Qa-17" value="Book" style="rounded=0;whiteSpace=wrap;html=1;fillColor=#a2d4e6;strokeColor=#63919f;" parent="1" vertex="1">
          <mxGeometry x="845" y="-370" width="100" height="60" as="geometry" />
        </mxCell>
        <mxCell id="knSOr63fwJM2YxoM46Qa-18" value="&lt;span id=&quot;docs-internal-guid-73259956-7fff-de5f-6799-3c9fa48e41fe&quot;&gt;&lt;span style=&quot;font-size: 11pt; font-family: Arial, sans-serif; background-color: transparent; font-variant-numeric: normal; font-variant-east-asian: normal; font-variant-alternates: normal; font-variant-position: normal; font-variant-emoji: normal; vertical-align: baseline; white-space-collapse: preserve;&quot;&gt;Quantity&lt;/span&gt;&lt;/span&gt;" style="ellipse;whiteSpace=wrap;html=1;fillColor=#f8cecc;strokeColor=#b85450;" parent="1" vertex="1">
          <mxGeometry x="760" y="-440" width="60" height="40" as="geometry" />
        </mxCell>
        <mxCell id="knSOr63fwJM2YxoM46Qa-19" parent="1" source="knSOr63fwJM2YxoM46Qa-17" target="knSOr63fwJM2YxoM46Qa-18" edge="1">
          <mxGeometry relative="1" as="geometry" />
        </mxCell>
        <mxCell id="knSOr63fwJM2YxoM46Qa-20" value="Title" style="ellipse;whiteSpace=wrap;html=1;fillColor=#f8cecc;strokeColor=#b85450;" parent="1" vertex="1">
          <mxGeometry x="965" y="-480" width="60" height="40" as="geometry" />
        </mxCell>
        <mxCell id="knSOr63fwJM2YxoM46Qa-21" parent="1" source="knSOr63fwJM2YxoM46Qa-17" target="knSOr63fwJM2YxoM46Qa-20" edge="1">
          <mxGeometry relative="1" as="geometry" />
        </mxCell>
        <mxCell id="knSOr63fwJM2YxoM46Qa-22" value="&lt;u&gt;ISBN&lt;/u&gt;" style="ellipse;whiteSpace=wrap;html=1;fillColor=#f8cecc;strokeColor=#b85450;" parent="1" vertex="1">
          <mxGeometry x="860" y="-520" width="60" height="40" as="geometry" />
        </mxCell>
        <mxCell id="knSOr63fwJM2YxoM46Qa-23" parent="1" source="knSOr63fwJM2YxoM46Qa-17" target="knSOr63fwJM2YxoM46Qa-22" edge="1">
          <mxGeometry relative="1" as="geometry" />
        </mxCell>
        <mxCell id="knSOr63fwJM2YxoM46Qa-24" value="Price" style="ellipse;whiteSpace=wrap;html=1;fillColor=#f8cecc;strokeColor=#b85450;" parent="1" vertex="1">
          <mxGeometry x="790" y="-500" width="60" height="40" as="geometry" />
        </mxCell>
        <mxCell id="knSOr63fwJM2YxoM46Qa-25" parent="1" source="knSOr63fwJM2YxoM46Qa-17" target="knSOr63fwJM2YxoM46Qa-24" edge="1">
          <mxGeometry relative="1" as="geometry" />
        </mxCell>
        <mxCell id="knSOr63fwJM2YxoM46Qa-26" value="Author" style="ellipse;whiteSpace=wrap;html=1;fillColor=#f8cecc;strokeColor=#b85450;" parent="1" vertex="1">
          <mxGeometry x="930" y="-520" width="60" height="40" as="geometry" />
        </mxCell>
        <mxCell id="knSOr63fwJM2YxoM46Qa-27" parent="1" source="knSOr63fwJM2YxoM46Qa-17" target="knSOr63fwJM2YxoM46Qa-26" edge="1">
          <mxGeometry relative="1" as="geometry" />
        </mxCell>
        <mxCell id="knSOr63fwJM2YxoM46Qa-28" value="Payment" style="rounded=0;whiteSpace=wrap;html=1;fillColor=#a2d4e6;strokeColor=#63919f;" parent="1" vertex="1">
          <mxGeometry x="690" y="520" width="100" height="60" as="geometry" />
        </mxCell>
        <mxCell id="knSOr63fwJM2YxoM46Qa-31" value="PaymtType" style="ellipse;whiteSpace=wrap;html=1;fillColor=#f8cecc;strokeColor=#b85450;" parent="1" vertex="1">
          <mxGeometry x="770" y="652.5" width="70" height="50" as="geometry" />
        </mxCell>
        <mxCell id="knSOr63fwJM2YxoM46Qa-32" parent="1" source="knSOr63fwJM2YxoM46Qa-28" target="knSOr63fwJM2YxoM46Qa-31" edge="1">
          <mxGeometry relative="1" as="geometry" />
        </mxCell>
        <mxCell id="knSOr63fwJM2YxoM46Qa-33" value="PaymentDate" style="ellipse;whiteSpace=wrap;html=1;fillColor=#f8cecc;strokeColor=#b85450;" parent="1" vertex="1">
          <mxGeometry x="645" y="652.5" width="80" height="40" as="geometry" />
        </mxCell>
        <mxCell id="knSOr63fwJM2YxoM46Qa-34" parent="1" source="knSOr63fwJM2YxoM46Qa-28" target="knSOr63fwJM2YxoM46Qa-33" edge="1">
          <mxGeometry relative="1" as="geometry" />
        </mxCell>
        <mxCell id="knSOr63fwJM2YxoM46Qa-35" value="TXNID" style="ellipse;whiteSpace=wrap;html=1;fillColor=#ffcccc;strokeColor=#36393d;" parent="1" vertex="1">
          <mxGeometry x="540" y="627.5" width="80" height="40" as="geometry" />
        </mxCell>
        <mxCell id="knSOr63fwJM2YxoM46Qa-36" parent="1" source="knSOr63fwJM2YxoM46Qa-28" target="knSOr63fwJM2YxoM46Qa-35" edge="1">
          <mxGeometry relative="1" as="geometry" />
        </mxCell>
        <mxCell id="viwkElXMkvqY3WvH5bWG-10" style="edgeStyle=orthogonalEdgeStyle;rounded=0;orthogonalLoop=1;jettySize=auto;html=1;entryX=0.5;entryY=1;entryDx=0;entryDy=0;endArrow=none;endFill=0;" parent="1" source="knSOr63fwJM2YxoM46Qa-37" target="knSOr63fwJM2YxoM46Qa-91" edge="1">
          <mxGeometry relative="1" as="geometry" />
        </mxCell>
        <mxCell id="viwkElXMkvqY3WvH5bWG-21" style="edgeStyle=orthogonalEdgeStyle;rounded=0;orthogonalLoop=1;jettySize=auto;html=1;entryX=0.5;entryY=1;entryDx=0;entryDy=0;endArrow=none;endFill=0;" parent="1" source="knSOr63fwJM2YxoM46Qa-37" target="viwkElXMkvqY3WvH5bWG-15" edge="1">
          <mxGeometry relative="1" as="geometry" />
        </mxCell>
        <mxCell id="knSOr63fwJM2YxoM46Qa-37" value="Cart" style="rounded=0;whiteSpace=wrap;html=1;fillColor=#a2d4e6;strokeColor=#63919f;" parent="1" vertex="1">
          <mxGeometry x="690" y="275" width="100" height="60" as="geometry" />
        </mxCell>
        <mxCell id="knSOr63fwJM2YxoM46Qa-38" value="CartID" style="ellipse;whiteSpace=wrap;html=1;fillColor=#f8cecc;strokeColor=#b85450;" parent="1" vertex="1">
          <mxGeometry x="600" y="330" width="60" height="40" as="geometry" />
        </mxCell>
        <mxCell id="knSOr63fwJM2YxoM46Qa-39" parent="1" source="knSOr63fwJM2YxoM46Qa-37" target="knSOr63fwJM2YxoM46Qa-38" edge="1">
          <mxGeometry relative="1" as="geometry" />
        </mxCell>
        <mxCell id="knSOr63fwJM2YxoM46Qa-40" value="Amount" style="ellipse;whiteSpace=wrap;html=1;fillColor=#f8cecc;strokeColor=#b85450;" parent="1" vertex="1">
          <mxGeometry x="620" y="220" width="60" height="40" as="geometry" />
        </mxCell>
        <mxCell id="knSOr63fwJM2YxoM46Qa-41" parent="1" source="knSOr63fwJM2YxoM46Qa-37" target="knSOr63fwJM2YxoM46Qa-40" edge="1">
          <mxGeometry relative="1" as="geometry" />
        </mxCell>
        <mxCell id="viwkElXMkvqY3WvH5bWG-17" style="edgeStyle=orthogonalEdgeStyle;rounded=0;orthogonalLoop=1;jettySize=auto;html=1;entryX=0;entryY=0.5;entryDx=0;entryDy=0;endArrow=none;endFill=0;" parent="1" source="knSOr63fwJM2YxoM46Qa-42" target="viwkElXMkvqY3WvH5bWG-15" edge="1">
          <mxGeometry relative="1" as="geometry" />
        </mxCell>
        <mxCell id="viwkElXMkvqY3WvH5bWG-27" style="rounded=0;orthogonalLoop=1;jettySize=auto;html=1;entryX=1;entryY=0.5;entryDx=0;entryDy=0;endArrow=none;endFill=0;" parent="1" source="knSOr63fwJM2YxoM46Qa-42" target="viwkElXMkvqY3WvH5bWG-22" edge="1">
          <mxGeometry relative="1" as="geometry" />
        </mxCell>
        <mxCell id="viwkElXMkvqY3WvH5bWG-38" style="rounded=0;orthogonalLoop=1;jettySize=auto;html=1;entryX=0;entryY=0.5;entryDx=0;entryDy=0;endArrow=none;endFill=0;" parent="1" source="knSOr63fwJM2YxoM46Qa-42" target="viwkElXMkvqY3WvH5bWG-40" edge="1">
          <mxGeometry relative="1" as="geometry">
            <mxPoint x="560" y="9.999999999999773" as="targetPoint" />
          </mxGeometry>
        </mxCell>
        <mxCell id="knSOr63fwJM2YxoM46Qa-42" value="Order" style="rounded=0;whiteSpace=wrap;html=1;fillColor=#a2d4e6;strokeColor=#63919f;" parent="1" vertex="1">
          <mxGeometry x="460" y="55" width="100" height="60" as="geometry" />
        </mxCell>
        <mxCell id="knSOr63fwJM2YxoM46Qa-43" value="OrderID" style="ellipse;whiteSpace=wrap;html=1;fillColor=#f8cecc;strokeColor=#b85450;" parent="1" vertex="1">
          <mxGeometry x="480" y="180" width="60" height="45" as="geometry" />
        </mxCell>
        <mxCell id="knSOr63fwJM2YxoM46Qa-44" parent="1" source="knSOr63fwJM2YxoM46Qa-42" target="knSOr63fwJM2YxoM46Qa-43" edge="1">
          <mxGeometry relative="1" as="geometry" />
        </mxCell>
        <mxCell id="XFWJKoRLsI-GRv0qEJuy-2" style="edgeStyle=orthogonalEdgeStyle;rounded=0;orthogonalLoop=1;jettySize=auto;html=1;elbow=vertical;endArrow=none;endFill=0;" edge="1" parent="1" source="knSOr63fwJM2YxoM46Qa-49">
          <mxGeometry relative="1" as="geometry">
            <mxPoint x="130" y="730" as="targetPoint" />
          </mxGeometry>
        </mxCell>
        <mxCell id="knSOr63fwJM2YxoM46Qa-49" value="Customer" style="rounded=0;whiteSpace=wrap;html=1;fillColor=#a2d4e6;strokeColor=#63919f;" parent="1" vertex="1">
          <mxGeometry x="260" y="280" width="100" height="60" as="geometry" />
        </mxCell>
        <mxCell id="knSOr63fwJM2YxoM46Qa-50" value="CustomerID" style="ellipse;whiteSpace=wrap;html=1;fillColor=#f8cecc;strokeColor=#b85450;" parent="1" vertex="1">
          <mxGeometry x="260" y="185" width="60" height="40" as="geometry" />
        </mxCell>
        <mxCell id="knSOr63fwJM2YxoM46Qa-51" parent="1" source="knSOr63fwJM2YxoM46Qa-49" target="knSOr63fwJM2YxoM46Qa-50" edge="1">
          <mxGeometry relative="1" as="geometry" />
        </mxCell>
        <mxCell id="knSOr63fwJM2YxoM46Qa-52" value="cUsername" style="ellipse;whiteSpace=wrap;html=1;fillColor=#f8cecc;strokeColor=#b85450;" parent="1" vertex="1">
          <mxGeometry x="130" y="240" width="60" height="40" as="geometry" />
        </mxCell>
        <mxCell id="knSOr63fwJM2YxoM46Qa-53" parent="1" source="knSOr63fwJM2YxoM46Qa-49" target="knSOr63fwJM2YxoM46Qa-52" edge="1">
          <mxGeometry relative="1" as="geometry" />
        </mxCell>
        <mxCell id="knSOr63fwJM2YxoM46Qa-54" value="Email" style="ellipse;whiteSpace=wrap;html=1;fillColor=#f8cecc;strokeColor=#b85450;" parent="1" vertex="1">
          <mxGeometry x="180" y="165" width="60" height="40" as="geometry" />
        </mxCell>
        <mxCell id="knSOr63fwJM2YxoM46Qa-55" parent="1" source="knSOr63fwJM2YxoM46Qa-49" target="knSOr63fwJM2YxoM46Qa-54" edge="1">
          <mxGeometry relative="1" as="geometry" />
        </mxCell>
        <mxCell id="knSOr63fwJM2YxoM46Qa-56" value="" style="endArrow=none;html=1;rounded=0;entryX=0.5;entryY=1;entryDx=0;entryDy=0;exitX=0.5;exitY=0;exitDx=0;exitDy=0;" parent="1" source="knSOr63fwJM2YxoM46Qa-57" target="knSOr63fwJM2YxoM46Qa-17" edge="1">
          <mxGeometry width="50" height="50" relative="1" as="geometry">
            <mxPoint x="900" y="-210" as="sourcePoint" />
            <mxPoint x="900" y="-171" as="targetPoint" />
          </mxGeometry>
        </mxCell>
        <mxCell id="knSOr63fwJM2YxoM46Qa-57" value="" style="rhombus;whiteSpace=wrap;html=1;fillColor=#ffff88;strokeColor=#36393d;" parent="1" vertex="1">
          <mxGeometry x="840" y="-240" width="110" height="70" as="geometry" />
        </mxCell>
        <mxCell id="knSOr63fwJM2YxoM46Qa-59" value="Belongs to" style="text;html=1;align=center;verticalAlign=middle;whiteSpace=wrap;rounded=0;fillColor=none;strokeColor=none;glass=0;gradientColor=none;" parent="1" vertex="1">
          <mxGeometry x="865" y="-220" width="60" height="30" as="geometry" />
        </mxCell>
        <mxCell id="viwkElXMkvqY3WvH5bWG-7" style="rounded=0;orthogonalLoop=1;jettySize=auto;html=1;entryX=0;entryY=0.5;entryDx=0;entryDy=0;endArrow=none;endFill=0;" parent="1" source="knSOr63fwJM2YxoM46Qa-60" target="knSOr63fwJM2YxoM46Qa-37" edge="1">
          <mxGeometry relative="1" as="geometry">
            <mxPoint x="670" y="300" as="targetPoint" />
          </mxGeometry>
        </mxCell>
        <mxCell id="knSOr63fwJM2YxoM46Qa-60" value="" style="rhombus;whiteSpace=wrap;html=1;fillColor=#ffff88;strokeColor=#36393d;" parent="1" vertex="1">
          <mxGeometry x="470" y="275" width="100" height="70" as="geometry" />
        </mxCell>
        <mxCell id="knSOr63fwJM2YxoM46Qa-61" value="Owns" style="text;html=1;align=center;verticalAlign=middle;whiteSpace=wrap;rounded=0;" parent="1" vertex="1">
          <mxGeometry x="490" y="295" width="60" height="30" as="geometry" />
        </mxCell>
        <mxCell id="knSOr63fwJM2YxoM46Qa-62" value="" style="endArrow=none;html=1;rounded=0;entryX=0;entryY=0.5;entryDx=0;entryDy=0;exitX=1;exitY=0.5;exitDx=0;exitDy=0;" parent="1" source="knSOr63fwJM2YxoM46Qa-11" target="knSOr63fwJM2YxoM46Qa-17" edge="1">
          <mxGeometry width="50" height="50" relative="1" as="geometry">
            <mxPoint x="390" y="-160" as="sourcePoint" />
            <mxPoint x="440" y="-210" as="targetPoint" />
          </mxGeometry>
        </mxCell>
        <mxCell id="knSOr63fwJM2YxoM46Qa-65" value="" style="endArrow=none;html=1;rounded=0;entryX=0;entryY=0.5;entryDx=0;entryDy=0;exitX=1;exitY=0.5;exitDx=0;exitDy=0;" parent="1" source="knSOr63fwJM2YxoM46Qa-49" target="knSOr63fwJM2YxoM46Qa-60" edge="1">
          <mxGeometry width="50" height="50" relative="1" as="geometry">
            <mxPoint x="420" y="245" as="sourcePoint" />
            <mxPoint x="510" y="110" as="targetPoint" />
          </mxGeometry>
        </mxCell>
        <mxCell id="viwkElXMkvqY3WvH5bWG-8" style="rounded=0;orthogonalLoop=1;jettySize=auto;html=1;entryX=0.5;entryY=0;entryDx=0;entryDy=0;endArrow=none;endFill=0;" parent="1" source="knSOr63fwJM2YxoM46Qa-66" target="knSOr63fwJM2YxoM46Qa-28" edge="1">
          <mxGeometry relative="1" as="geometry" />
        </mxCell>
        <mxCell id="knSOr63fwJM2YxoM46Qa-66" value="" style="rhombus;whiteSpace=wrap;html=1;fillColor=#ffff88;strokeColor=#36393d;" parent="1" vertex="1">
          <mxGeometry x="690" y="390" width="100" height="60" as="geometry" />
        </mxCell>
        <mxCell id="knSOr63fwJM2YxoM46Qa-67" value="" style="endArrow=none;html=1;rounded=0;entryX=0.5;entryY=0;entryDx=0;entryDy=0;exitX=0.5;exitY=1;exitDx=0;exitDy=0;" parent="1" source="knSOr63fwJM2YxoM46Qa-37" target="knSOr63fwJM2YxoM46Qa-66" edge="1">
          <mxGeometry width="50" height="50" relative="1" as="geometry">
            <mxPoint x="750" y="260" as="sourcePoint" />
            <mxPoint x="749.81" y="325" as="targetPoint" />
          </mxGeometry>
        </mxCell>
        <mxCell id="knSOr63fwJM2YxoM46Qa-69" value="Paid by" style="text;html=1;align=center;verticalAlign=middle;whiteSpace=wrap;rounded=0;" parent="1" vertex="1">
          <mxGeometry x="710" y="410" width="60" height="30" as="geometry" />
        </mxCell>
        <mxCell id="knSOr63fwJM2YxoM46Qa-70" value="" style="rhombus;whiteSpace=wrap;html=1;fillColor=#ffff88;strokeColor=#36393d;" parent="1" vertex="1">
          <mxGeometry x="250" y="-170" width="90" height="70" as="geometry" />
        </mxCell>
        <mxCell id="knSOr63fwJM2YxoM46Qa-71" value="Oversees" style="text;html=1;align=center;verticalAlign=middle;whiteSpace=wrap;rounded=0;" parent="1" vertex="1">
          <mxGeometry x="265" y="-150" width="60" height="30" as="geometry" />
        </mxCell>
        <mxCell id="knSOr63fwJM2YxoM46Qa-72" value="" style="endArrow=none;html=1;rounded=0;entryX=0;entryY=0.5;entryDx=0;entryDy=0;exitX=0.5;exitY=0;exitDx=0;exitDy=0;" parent="1" source="knSOr63fwJM2YxoM46Qa-70" target="knSOr63fwJM2YxoM46Qa-2" edge="1">
          <mxGeometry width="50" height="50" relative="1" as="geometry">
            <mxPoint x="540" y="50" as="sourcePoint" />
            <mxPoint x="590" as="targetPoint" />
            <Array as="points">
              <mxPoint x="295" y="-340" />
            </Array>
          </mxGeometry>
        </mxCell>
        <mxCell id="knSOr63fwJM2YxoM46Qa-73" value="" style="endArrow=none;html=1;rounded=0;entryX=1;entryY=0.5;entryDx=0;entryDy=0;exitX=0.4;exitY=0;exitDx=0;exitDy=0;exitPerimeter=0;" parent="1" source="knSOr63fwJM2YxoM46Qa-42" target="knSOr63fwJM2YxoM46Qa-70" edge="1">
          <mxGeometry width="50" height="50" relative="1" as="geometry">
            <mxPoint x="560" y="40" as="sourcePoint" />
            <mxPoint x="570" y="-10" as="targetPoint" />
            <Array as="points">
              <mxPoint x="500" y="-135" />
            </Array>
          </mxGeometry>
        </mxCell>
        <mxCell id="knSOr63fwJM2YxoM46Qa-78" value="" style="rhombus;whiteSpace=wrap;html=1;fillColor=#ffff88;strokeColor=#36393d;" parent="1" vertex="1">
          <mxGeometry x="300" y="140" width="100" height="60" as="geometry" />
        </mxCell>
        <mxCell id="knSOr63fwJM2YxoM46Qa-79" value="" style="endArrow=none;html=1;rounded=0;exitX=0.5;exitY=0;exitDx=0;exitDy=0;entryX=0;entryY=0.5;entryDx=0;entryDy=0;" parent="1" source="knSOr63fwJM2YxoM46Qa-78" target="knSOr63fwJM2YxoM46Qa-42" edge="1">
          <mxGeometry width="50" height="50" relative="1" as="geometry">
            <mxPoint x="730" y="120" as="sourcePoint" />
            <mxPoint x="520" y="70" as="targetPoint" />
          </mxGeometry>
        </mxCell>
        <mxCell id="knSOr63fwJM2YxoM46Qa-80" value="" style="endArrow=none;html=1;rounded=0;exitX=0.5;exitY=0;exitDx=0;exitDy=0;entryX=0.5;entryY=1;entryDx=0;entryDy=0;" parent="1" source="knSOr63fwJM2YxoM46Qa-49" target="knSOr63fwJM2YxoM46Qa-78" edge="1">
          <mxGeometry width="50" height="50" relative="1" as="geometry">
            <mxPoint x="730" y="120" as="sourcePoint" />
            <mxPoint x="780" y="70" as="targetPoint" />
          </mxGeometry>
        </mxCell>
        <mxCell id="knSOr63fwJM2YxoM46Qa-81" value="Made By" style="text;html=1;align=center;verticalAlign=middle;whiteSpace=wrap;rounded=0;" parent="1" vertex="1">
          <mxGeometry x="320" y="155" width="60" height="30" as="geometry" />
        </mxCell>
        <mxCell id="knSOr63fwJM2YxoM46Qa-82" value="" style="rhombus;whiteSpace=wrap;html=1;fillColor=#ffff88;strokeColor=#36393d;" parent="1" vertex="1">
          <mxGeometry x="420" y="520" width="100" height="60" as="geometry" />
        </mxCell>
        <mxCell id="knSOr63fwJM2YxoM46Qa-83" value="Makes" style="text;html=1;align=center;verticalAlign=middle;whiteSpace=wrap;rounded=0;" parent="1" vertex="1">
          <mxGeometry x="440" y="535" width="60" height="25" as="geometry" />
        </mxCell>
        <mxCell id="knSOr63fwJM2YxoM46Qa-84" value="" style="endArrow=none;html=1;rounded=0;entryX=0;entryY=0.5;entryDx=0;entryDy=0;exitX=1;exitY=0.5;exitDx=0;exitDy=0;" parent="1" source="knSOr63fwJM2YxoM46Qa-82" target="knSOr63fwJM2YxoM46Qa-28" edge="1">
          <mxGeometry width="50" height="50" relative="1" as="geometry">
            <mxPoint x="610" y="420" as="sourcePoint" />
            <mxPoint x="660" y="370" as="targetPoint" />
          </mxGeometry>
        </mxCell>
        <mxCell id="knSOr63fwJM2YxoM46Qa-85" value="" style="endArrow=none;html=1;rounded=0;exitX=0.5;exitY=1;exitDx=0;exitDy=0;entryX=0;entryY=0.5;entryDx=0;entryDy=0;" parent="1" source="knSOr63fwJM2YxoM46Qa-49" target="knSOr63fwJM2YxoM46Qa-82" edge="1">
          <mxGeometry width="50" height="50" relative="1" as="geometry">
            <mxPoint x="610" y="420" as="sourcePoint" />
            <mxPoint x="660" y="370" as="targetPoint" />
            <Array as="points">
              <mxPoint x="310" y="550" />
            </Array>
          </mxGeometry>
        </mxCell>
        <mxCell id="knSOr63fwJM2YxoM46Qa-86" value="" style="rhombus;whiteSpace=wrap;html=1;fillColor=#ffff88;strokeColor=#36393d;" parent="1" vertex="1">
          <mxGeometry x="710" y="-160" width="90" height="60" as="geometry" />
        </mxCell>
        <mxCell id="knSOr63fwJM2YxoM46Qa-89" value="Maintains" style="text;html=1;align=center;verticalAlign=middle;whiteSpace=wrap;rounded=0;" parent="1" vertex="1">
          <mxGeometry x="725" y="-145" width="60" height="30" as="geometry" />
        </mxCell>
        <mxCell id="knSOr63fwJM2YxoM46Qa-91" value="" style="rhombus;whiteSpace=wrap;html=1;fillColor=#ffff88;strokeColor=#36393d;" parent="1" vertex="1">
          <mxGeometry x="1060" y="30" width="90" height="60" as="geometry" />
        </mxCell>
        <mxCell id="knSOr63fwJM2YxoM46Qa-94" value="Added to" style="text;html=1;align=center;verticalAlign=middle;whiteSpace=wrap;rounded=0;" parent="1" vertex="1">
          <mxGeometry x="1075" y="45" width="60" height="30" as="geometry" />
        </mxCell>
        <mxCell id="pzduVk1Wxx4do5fI0MAX-31" value="" style="endArrow=classic;html=1;rounded=0;exitX=1;exitY=0.5;exitDx=0;exitDy=0;" parent="1" source="knSOr63fwJM2YxoM46Qa-28" target="pzduVk1Wxx4do5fI0MAX-32" edge="1">
          <mxGeometry width="50" height="50" relative="1" as="geometry">
            <mxPoint x="990" y="600" as="sourcePoint" />
            <mxPoint x="1010" y="630" as="targetPoint" />
          </mxGeometry>
        </mxCell>
        <mxCell id="pzduVk1Wxx4do5fI0MAX-32" value="PhoneNum" style="ellipse;whiteSpace=wrap;html=1;fillColor=#f8cecc;strokeColor=#b85450;" parent="1" vertex="1">
          <mxGeometry x="860" y="650" width="70" height="40" as="geometry" />
        </mxCell>
        <mxCell id="pzduVk1Wxx4do5fI0MAX-35" value="" style="endArrow=classic;html=1;rounded=0;exitX=0;exitY=0.75;exitDx=0;exitDy=0;entryX=1;entryY=0;entryDx=0;entryDy=0;" parent="1" source="knSOr63fwJM2YxoM46Qa-49" target="pzduVk1Wxx4do5fI0MAX-36" edge="1">
          <mxGeometry width="50" height="50" relative="1" as="geometry">
            <mxPoint x="220" y="250" as="sourcePoint" />
            <mxPoint x="70" y="300" as="targetPoint" />
          </mxGeometry>
        </mxCell>
        <mxCell id="pzduVk1Wxx4do5fI0MAX-36" value="cPassword" style="ellipse;whiteSpace=wrap;html=1;fillColor=#f8cecc;strokeColor=#b85450;" parent="1" vertex="1">
          <mxGeometry x="130" y="345" width="70" height="40" as="geometry" />
        </mxCell>
        <mxCell id="pzduVk1Wxx4do5fI0MAX-38" value="" style="endArrow=none;html=1;rounded=0;entryX=0;entryY=0.5;entryDx=0;entryDy=0;exitX=1;exitY=0.5;exitDx=0;exitDy=0;" parent="1" source="knSOr63fwJM2YxoM46Qa-2" target="knSOr63fwJM2YxoM46Qa-11" edge="1">
          <mxGeometry width="50" height="50" relative="1" as="geometry">
            <mxPoint x="610" y="-310" as="sourcePoint" />
            <mxPoint x="660" y="-360" as="targetPoint" />
          </mxGeometry>
        </mxCell>
        <mxCell id="pzduVk1Wxx4do5fI0MAX-40" value="" style="endArrow=none;html=1;rounded=0;entryX=0.5;entryY=1;entryDx=0;entryDy=0;" parent="1" target="knSOr63fwJM2YxoM46Qa-57" edge="1">
          <mxGeometry width="50" height="50" relative="1" as="geometry">
            <mxPoint x="895" y="-100" as="sourcePoint" />
            <mxPoint x="990" y="-120" as="targetPoint" />
          </mxGeometry>
        </mxCell>
        <mxCell id="pzduVk1Wxx4do5fI0MAX-42" value="" style="endArrow=none;html=1;rounded=0;exitX=0.5;exitY=0;exitDx=0;exitDy=0;" parent="1" source="knSOr63fwJM2YxoM46Qa-12" edge="1">
          <mxGeometry width="50" height="50" relative="1" as="geometry">
            <mxPoint x="952.607391304348" y="-15.000000000000227" as="sourcePoint" />
            <mxPoint x="960" y="-100" as="targetPoint" />
          </mxGeometry>
        </mxCell>
        <mxCell id="pzduVk1Wxx4do5fI0MAX-43" value="" style="endArrow=none;html=1;rounded=0;" parent="1" edge="1">
          <mxGeometry width="50" height="50" relative="1" as="geometry">
            <mxPoint x="890" y="-100" as="sourcePoint" />
            <mxPoint x="960" y="-100" as="targetPoint" />
          </mxGeometry>
        </mxCell>
        <mxCell id="pzduVk1Wxx4do5fI0MAX-44" value="" style="endArrow=none;html=1;rounded=0;entryX=0.5;entryY=0;entryDx=0;entryDy=0;exitX=1;exitY=1;exitDx=0;exitDy=0;" parent="1" source="knSOr63fwJM2YxoM46Qa-2" target="knSOr63fwJM2YxoM46Qa-86" edge="1">
          <mxGeometry width="50" height="50" relative="1" as="geometry">
            <mxPoint x="630" y="-280" as="sourcePoint" />
            <mxPoint x="580" y="-230" as="targetPoint" />
          </mxGeometry>
        </mxCell>
        <mxCell id="pzduVk1Wxx4do5fI0MAX-45" value="" style="endArrow=none;html=1;rounded=0;entryX=0.5;entryY=1;entryDx=0;entryDy=0;" parent="1" source="knSOr63fwJM2YxoM46Qa-12" target="knSOr63fwJM2YxoM46Qa-86" edge="1">
          <mxGeometry width="50" height="50" relative="1" as="geometry">
            <mxPoint x="780" y="-20" as="sourcePoint" />
            <mxPoint x="765" y="-99" as="targetPoint" />
          </mxGeometry>
        </mxCell>
        <mxCell id="jkkm4tTHfzDsb4FSxQV0-1" value="" style="endArrow=classic;html=1;rounded=0;exitX=0;exitY=1;exitDx=0;exitDy=0;entryX=1;entryY=0.5;entryDx=0;entryDy=0;" parent="1" source="jkkm4tTHfzDsb4FSxQV0-37" target="jkkm4tTHfzDsb4FSxQV0-91" edge="1">
          <mxGeometry width="50" height="50" relative="1" as="geometry">
            <mxPoint x="4740" y="420" as="sourcePoint" />
            <mxPoint x="4690" y="470" as="targetPoint" />
          </mxGeometry>
        </mxCell>
        <mxCell id="jkkm4tTHfzDsb4FSxQV0-2" value="Admin" style="rounded=0;whiteSpace=wrap;html=1;fillColor=#a2d4e6;strokeColor=#63919f;" parent="1" vertex="1">
          <mxGeometry x="4520" y="-240" width="100" height="60" as="geometry" />
        </mxCell>
        <mxCell id="jkkm4tTHfzDsb4FSxQV0-3" value="AdminID" style="ellipse;whiteSpace=wrap;html=1;fillColor=#f8cecc;strokeColor=#b85450;" parent="1" vertex="1">
          <mxGeometry x="4380" y="-390" width="60" height="40" as="geometry" />
        </mxCell>
        <mxCell id="jkkm4tTHfzDsb4FSxQV0-4" parent="1" source="jkkm4tTHfzDsb4FSxQV0-2" target="jkkm4tTHfzDsb4FSxQV0-3" edge="1">
          <mxGeometry relative="1" as="geometry" />
        </mxCell>
        <mxCell id="jkkm4tTHfzDsb4FSxQV0-5" value="Username" style="ellipse;whiteSpace=wrap;html=1;fillColor=#f8cecc;strokeColor=#b85450;" parent="1" vertex="1">
          <mxGeometry x="4460" y="-400" width="60" height="40" as="geometry" />
        </mxCell>
        <mxCell id="jkkm4tTHfzDsb4FSxQV0-6" parent="1" source="jkkm4tTHfzDsb4FSxQV0-2" target="jkkm4tTHfzDsb4FSxQV0-5" edge="1">
          <mxGeometry relative="1" as="geometry" />
        </mxCell>
        <mxCell id="jkkm4tTHfzDsb4FSxQV0-7" value="Email" style="ellipse;whiteSpace=wrap;html=1;fillColor=#f8cecc;strokeColor=#b85450;" parent="1" vertex="1">
          <mxGeometry x="4530" y="-410" width="60" height="40" as="geometry" />
        </mxCell>
        <mxCell id="jkkm4tTHfzDsb4FSxQV0-8" parent="1" source="jkkm4tTHfzDsb4FSxQV0-2" target="jkkm4tTHfzDsb4FSxQV0-7" edge="1">
          <mxGeometry relative="1" as="geometry" />
        </mxCell>
        <mxCell id="jkkm4tTHfzDsb4FSxQV0-9" value="Password" style="ellipse;whiteSpace=wrap;html=1;fillColor=#f8cecc;strokeColor=#b85450;" parent="1" vertex="1">
          <mxGeometry x="4590" y="-370" width="60" height="40" as="geometry" />
        </mxCell>
        <mxCell id="jkkm4tTHfzDsb4FSxQV0-10" parent="1" source="jkkm4tTHfzDsb4FSxQV0-2" target="jkkm4tTHfzDsb4FSxQV0-9" edge="1">
          <mxGeometry relative="1" as="geometry" />
        </mxCell>
        <mxCell id="jkkm4tTHfzDsb4FSxQV0-11" value="Manages" style="rhombus;whiteSpace=wrap;html=1;fillColor=#ffff88;strokeColor=#36393d;" parent="1" vertex="1">
          <mxGeometry x="4740" y="-240" width="80" height="60" as="geometry" />
        </mxCell>
        <mxCell id="jkkm4tTHfzDsb4FSxQV0-12" value="Category" style="rounded=0;whiteSpace=wrap;html=1;fillColor=#a2d4e6;strokeColor=#63919f;" parent="1" vertex="1">
          <mxGeometry x="4960" y="115" width="100" height="60" as="geometry" />
        </mxCell>
        <mxCell id="jkkm4tTHfzDsb4FSxQV0-13" value="CategoryID" style="ellipse;whiteSpace=wrap;html=1;fillColor=#f8cecc;strokeColor=#b85450;" parent="1" vertex="1">
          <mxGeometry x="4930" y="230" width="60" height="40" as="geometry" />
        </mxCell>
        <mxCell id="jkkm4tTHfzDsb4FSxQV0-14" parent="1" source="jkkm4tTHfzDsb4FSxQV0-12" target="jkkm4tTHfzDsb4FSxQV0-13" edge="1">
          <mxGeometry relative="1" as="geometry" />
        </mxCell>
        <mxCell id="jkkm4tTHfzDsb4FSxQV0-15" value="CategoryName" style="ellipse;whiteSpace=wrap;html=1;fillColor=#f8cecc;strokeColor=#b85450;" parent="1" vertex="1">
          <mxGeometry x="4990" y="245" width="90" height="50" as="geometry" />
        </mxCell>
        <mxCell id="jkkm4tTHfzDsb4FSxQV0-16" style="exitX=0.6;exitY=0.971;exitDx=0;exitDy=0;exitPerimeter=0;" parent="1" source="jkkm4tTHfzDsb4FSxQV0-12" target="jkkm4tTHfzDsb4FSxQV0-15" edge="1">
          <mxGeometry relative="1" as="geometry">
            <mxPoint x="5050" y="341" as="sourcePoint" />
          </mxGeometry>
        </mxCell>
        <mxCell id="jkkm4tTHfzDsb4FSxQV0-17" value="Book" style="rounded=0;whiteSpace=wrap;html=1;fillColor=#a2d4e6;strokeColor=#63919f;" parent="1" vertex="1">
          <mxGeometry x="4895" y="-240" width="100" height="60" as="geometry" />
        </mxCell>
        <mxCell id="jkkm4tTHfzDsb4FSxQV0-18" value="BookID" style="ellipse;whiteSpace=wrap;html=1;fillColor=#f8cecc;strokeColor=#b85450;" parent="1" vertex="1">
          <mxGeometry x="4775" y="-400" width="60" height="40" as="geometry" />
        </mxCell>
        <mxCell id="jkkm4tTHfzDsb4FSxQV0-19" parent="1" source="jkkm4tTHfzDsb4FSxQV0-17" target="jkkm4tTHfzDsb4FSxQV0-18" edge="1">
          <mxGeometry relative="1" as="geometry" />
        </mxCell>
        <mxCell id="jkkm4tTHfzDsb4FSxQV0-20" value="Title" style="ellipse;whiteSpace=wrap;html=1;fillColor=#f8cecc;strokeColor=#b85450;" parent="1" vertex="1">
          <mxGeometry x="5040" y="-430" width="60" height="40" as="geometry" />
        </mxCell>
        <mxCell id="jkkm4tTHfzDsb4FSxQV0-21" parent="1" source="jkkm4tTHfzDsb4FSxQV0-17" target="jkkm4tTHfzDsb4FSxQV0-20" edge="1">
          <mxGeometry relative="1" as="geometry" />
        </mxCell>
        <mxCell id="jkkm4tTHfzDsb4FSxQV0-22" value="ISBN" style="ellipse;whiteSpace=wrap;html=1;fillColor=#f8cecc;strokeColor=#b85450;" parent="1" vertex="1">
          <mxGeometry x="4900" y="-460" width="60" height="40" as="geometry" />
        </mxCell>
        <mxCell id="jkkm4tTHfzDsb4FSxQV0-23" parent="1" source="jkkm4tTHfzDsb4FSxQV0-17" target="jkkm4tTHfzDsb4FSxQV0-22" edge="1">
          <mxGeometry relative="1" as="geometry" />
        </mxCell>
        <mxCell id="jkkm4tTHfzDsb4FSxQV0-24" value="Price" style="ellipse;whiteSpace=wrap;html=1;fillColor=#f8cecc;strokeColor=#b85450;" parent="1" vertex="1">
          <mxGeometry x="4835" y="-440" width="60" height="40" as="geometry" />
        </mxCell>
        <mxCell id="jkkm4tTHfzDsb4FSxQV0-25" parent="1" source="jkkm4tTHfzDsb4FSxQV0-17" target="jkkm4tTHfzDsb4FSxQV0-24" edge="1">
          <mxGeometry relative="1" as="geometry" />
        </mxCell>
        <mxCell id="jkkm4tTHfzDsb4FSxQV0-26" value="Author" style="ellipse;whiteSpace=wrap;html=1;fillColor=#f8cecc;strokeColor=#b85450;" parent="1" vertex="1">
          <mxGeometry x="4980" y="-460" width="60" height="40" as="geometry" />
        </mxCell>
        <mxCell id="jkkm4tTHfzDsb4FSxQV0-27" parent="1" source="jkkm4tTHfzDsb4FSxQV0-17" target="jkkm4tTHfzDsb4FSxQV0-26" edge="1">
          <mxGeometry relative="1" as="geometry" />
        </mxCell>
        <mxCell id="jkkm4tTHfzDsb4FSxQV0-28" value="Payment" style="rounded=0;whiteSpace=wrap;html=1;fillColor=#a2d4e6;strokeColor=#63919f;" parent="1" vertex="1">
          <mxGeometry x="4740" y="650" width="100" height="60" as="geometry" />
        </mxCell>
        <mxCell id="jkkm4tTHfzDsb4FSxQV0-29" value="PaymentID" style="ellipse;whiteSpace=wrap;html=1;fillColor=#f8cecc;strokeColor=#b85450;" parent="1" vertex="1">
          <mxGeometry x="4540" y="800" width="60" height="40" as="geometry" />
        </mxCell>
        <mxCell id="jkkm4tTHfzDsb4FSxQV0-30" parent="1" source="jkkm4tTHfzDsb4FSxQV0-28" target="jkkm4tTHfzDsb4FSxQV0-29" edge="1">
          <mxGeometry relative="1" as="geometry" />
        </mxCell>
        <mxCell id="jkkm4tTHfzDsb4FSxQV0-31" value="Amount" style="ellipse;whiteSpace=wrap;html=1;fillColor=#f8cecc;strokeColor=#b85450;" parent="1" vertex="1">
          <mxGeometry x="4900" y="820" width="60" height="40" as="geometry" />
        </mxCell>
        <mxCell id="jkkm4tTHfzDsb4FSxQV0-32" parent="1" source="jkkm4tTHfzDsb4FSxQV0-28" target="jkkm4tTHfzDsb4FSxQV0-31" edge="1">
          <mxGeometry relative="1" as="geometry" />
        </mxCell>
        <mxCell id="jkkm4tTHfzDsb4FSxQV0-33" value="PaymentDate" style="ellipse;whiteSpace=wrap;html=1;fillColor=#f8cecc;strokeColor=#b85450;" parent="1" vertex="1">
          <mxGeometry x="4770" y="830" width="80" height="40" as="geometry" />
        </mxCell>
        <mxCell id="jkkm4tTHfzDsb4FSxQV0-34" parent="1" source="jkkm4tTHfzDsb4FSxQV0-28" target="jkkm4tTHfzDsb4FSxQV0-33" edge="1">
          <mxGeometry relative="1" as="geometry" />
        </mxCell>
        <mxCell id="jkkm4tTHfzDsb4FSxQV0-35" value="traID" style="ellipse;whiteSpace=wrap;html=1;fillColor=#ffcccc;strokeColor=#36393d;" parent="1" vertex="1">
          <mxGeometry x="4640" y="820" width="80" height="40" as="geometry" />
        </mxCell>
        <mxCell id="jkkm4tTHfzDsb4FSxQV0-36" parent="1" source="jkkm4tTHfzDsb4FSxQV0-28" target="jkkm4tTHfzDsb4FSxQV0-35" edge="1">
          <mxGeometry relative="1" as="geometry" />
        </mxCell>
        <mxCell id="jkkm4tTHfzDsb4FSxQV0-37" value="Cart" style="rounded=0;whiteSpace=wrap;html=1;fillColor=#a2d4e6;strokeColor=#63919f;" parent="1" vertex="1">
          <mxGeometry x="4750" y="340" width="100" height="60" as="geometry" />
        </mxCell>
        <mxCell id="jkkm4tTHfzDsb4FSxQV0-38" value="CartID" style="ellipse;whiteSpace=wrap;html=1;fillColor=#f8cecc;strokeColor=#b85450;" parent="1" vertex="1">
          <mxGeometry x="5040" y="460" width="60" height="40" as="geometry" />
        </mxCell>
        <mxCell id="jkkm4tTHfzDsb4FSxQV0-39" parent="1" source="jkkm4tTHfzDsb4FSxQV0-37" target="jkkm4tTHfzDsb4FSxQV0-38" edge="1">
          <mxGeometry relative="1" as="geometry" />
        </mxCell>
        <mxCell id="jkkm4tTHfzDsb4FSxQV0-40" value="Quantity" style="ellipse;whiteSpace=wrap;html=1;fillColor=#f8cecc;strokeColor=#b85450;" parent="1" vertex="1">
          <mxGeometry x="4970" y="520" width="60" height="40" as="geometry" />
        </mxCell>
        <mxCell id="jkkm4tTHfzDsb4FSxQV0-41" parent="1" source="jkkm4tTHfzDsb4FSxQV0-37" target="jkkm4tTHfzDsb4FSxQV0-40" edge="1">
          <mxGeometry relative="1" as="geometry" />
        </mxCell>
        <mxCell id="jkkm4tTHfzDsb4FSxQV0-42" style="edgeStyle=orthogonalEdgeStyle;rounded=0;orthogonalLoop=1;jettySize=auto;html=1;" parent="1" source="jkkm4tTHfzDsb4FSxQV0-43" target="jkkm4tTHfzDsb4FSxQV0-108" edge="1">
          <mxGeometry relative="1" as="geometry" />
        </mxCell>
        <mxCell id="jkkm4tTHfzDsb4FSxQV0-43" value="Sales" style="rounded=0;whiteSpace=wrap;html=1;fillColor=#a2d4e6;strokeColor=#63919f;" parent="1" vertex="1">
          <mxGeometry x="4570" y="160" width="100" height="60" as="geometry" />
        </mxCell>
        <mxCell id="jkkm4tTHfzDsb4FSxQV0-44" value="SalesID" style="ellipse;whiteSpace=wrap;html=1;fillColor=#f8cecc;strokeColor=#b85450;" parent="1" vertex="1">
          <mxGeometry x="4470" y="220" width="60" height="40" as="geometry" />
        </mxCell>
        <mxCell id="jkkm4tTHfzDsb4FSxQV0-45" parent="1" source="jkkm4tTHfzDsb4FSxQV0-43" target="jkkm4tTHfzDsb4FSxQV0-44" edge="1">
          <mxGeometry relative="1" as="geometry" />
        </mxCell>
        <mxCell id="jkkm4tTHfzDsb4FSxQV0-46" value="Quantity" style="ellipse;whiteSpace=wrap;html=1;fillColor=#f8cecc;strokeColor=#b85450;" parent="1" vertex="1">
          <mxGeometry x="4640" y="245" width="60" height="40" as="geometry" />
        </mxCell>
        <mxCell id="jkkm4tTHfzDsb4FSxQV0-47" parent="1" source="jkkm4tTHfzDsb4FSxQV0-43" target="jkkm4tTHfzDsb4FSxQV0-46" edge="1">
          <mxGeometry relative="1" as="geometry" />
        </mxCell>
        <mxCell id="jkkm4tTHfzDsb4FSxQV0-48" value="PaymentDate" style="ellipse;whiteSpace=wrap;html=1;fillColor=#f8cecc;strokeColor=#b85450;" parent="1" vertex="1">
          <mxGeometry x="4530" y="240" width="90" height="40" as="geometry" />
        </mxCell>
        <mxCell id="jkkm4tTHfzDsb4FSxQV0-49" parent="1" source="jkkm4tTHfzDsb4FSxQV0-43" target="jkkm4tTHfzDsb4FSxQV0-48" edge="1">
          <mxGeometry relative="1" as="geometry" />
        </mxCell>
        <mxCell id="jkkm4tTHfzDsb4FSxQV0-50" value="Customer" style="rounded=0;whiteSpace=wrap;html=1;fillColor=#a2d4e6;strokeColor=#63919f;" parent="1" vertex="1">
          <mxGeometry x="4310" y="370" width="100" height="60" as="geometry" />
        </mxCell>
        <mxCell id="jkkm4tTHfzDsb4FSxQV0-51" value="CustomerID" style="ellipse;whiteSpace=wrap;html=1;fillColor=#f8cecc;strokeColor=#b85450;" parent="1" vertex="1">
          <mxGeometry x="4190" y="450" width="60" height="40" as="geometry" />
        </mxCell>
        <mxCell id="jkkm4tTHfzDsb4FSxQV0-52" parent="1" source="jkkm4tTHfzDsb4FSxQV0-50" target="jkkm4tTHfzDsb4FSxQV0-51" edge="1">
          <mxGeometry relative="1" as="geometry" />
        </mxCell>
        <mxCell id="jkkm4tTHfzDsb4FSxQV0-53" value="username" style="ellipse;whiteSpace=wrap;html=1;fillColor=#f8cecc;strokeColor=#b85450;" parent="1" vertex="1">
          <mxGeometry x="4140" y="350" width="60" height="40" as="geometry" />
        </mxCell>
        <mxCell id="jkkm4tTHfzDsb4FSxQV0-54" parent="1" source="jkkm4tTHfzDsb4FSxQV0-50" target="jkkm4tTHfzDsb4FSxQV0-53" edge="1">
          <mxGeometry relative="1" as="geometry" />
        </mxCell>
        <mxCell id="jkkm4tTHfzDsb4FSxQV0-55" value="Email" style="ellipse;whiteSpace=wrap;html=1;fillColor=#f8cecc;strokeColor=#b85450;" parent="1" vertex="1">
          <mxGeometry x="4200" y="245" width="60" height="40" as="geometry" />
        </mxCell>
        <mxCell id="jkkm4tTHfzDsb4FSxQV0-56" parent="1" source="jkkm4tTHfzDsb4FSxQV0-50" target="jkkm4tTHfzDsb4FSxQV0-55" edge="1">
          <mxGeometry relative="1" as="geometry" />
        </mxCell>
        <mxCell id="jkkm4tTHfzDsb4FSxQV0-57" value="" style="endArrow=none;html=1;rounded=0;entryX=0.5;entryY=1;entryDx=0;entryDy=0;exitX=0.5;exitY=0;exitDx=0;exitDy=0;" parent="1" source="jkkm4tTHfzDsb4FSxQV0-58" target="jkkm4tTHfzDsb4FSxQV0-17" edge="1">
          <mxGeometry width="50" height="50" relative="1" as="geometry">
            <mxPoint x="4950" y="-80" as="sourcePoint" />
            <mxPoint x="4950" y="-41" as="targetPoint" />
          </mxGeometry>
        </mxCell>
        <mxCell id="jkkm4tTHfzDsb4FSxQV0-58" value="" style="rhombus;whiteSpace=wrap;html=1;fillColor=#ffff88;strokeColor=#36393d;" parent="1" vertex="1">
          <mxGeometry x="4890" y="-110" width="110" height="70" as="geometry" />
        </mxCell>
        <mxCell id="jkkm4tTHfzDsb4FSxQV0-59" value="Belongs to" style="text;html=1;align=center;verticalAlign=middle;whiteSpace=wrap;rounded=0;fillColor=none;strokeColor=none;glass=0;gradientColor=none;" parent="1" vertex="1">
          <mxGeometry x="4915" y="-90" width="60" height="30" as="geometry" />
        </mxCell>
        <mxCell id="jkkm4tTHfzDsb4FSxQV0-60" value="" style="rhombus;whiteSpace=wrap;html=1;fillColor=#ffff88;strokeColor=#36393d;" parent="1" vertex="1">
          <mxGeometry x="4560" y="340" width="100" height="70" as="geometry" />
        </mxCell>
        <mxCell id="jkkm4tTHfzDsb4FSxQV0-61" value="Owns" style="text;html=1;align=center;verticalAlign=middle;whiteSpace=wrap;rounded=0;" parent="1" vertex="1">
          <mxGeometry x="4580" y="360" width="60" height="30" as="geometry" />
        </mxCell>
        <mxCell id="jkkm4tTHfzDsb4FSxQV0-62" value="" style="endArrow=none;html=1;rounded=0;entryX=0;entryY=0.5;entryDx=0;entryDy=0;exitX=1;exitY=0.5;exitDx=0;exitDy=0;" parent="1" source="jkkm4tTHfzDsb4FSxQV0-11" target="jkkm4tTHfzDsb4FSxQV0-17" edge="1">
          <mxGeometry width="50" height="50" relative="1" as="geometry">
            <mxPoint x="4440" y="-30" as="sourcePoint" />
            <mxPoint x="4490" y="-80" as="targetPoint" />
          </mxGeometry>
        </mxCell>
        <mxCell id="jkkm4tTHfzDsb4FSxQV0-63" value="" style="endArrow=none;html=1;rounded=0;exitX=1;exitY=0.5;exitDx=0;exitDy=0;" parent="1" source="jkkm4tTHfzDsb4FSxQV0-60" edge="1">
          <mxGeometry width="50" height="50" relative="1" as="geometry">
            <mxPoint x="4510" y="910" as="sourcePoint" />
            <mxPoint x="4760" y="375" as="targetPoint" />
            <Array as="points">
              <mxPoint x="4720" y="375" />
            </Array>
          </mxGeometry>
        </mxCell>
        <mxCell id="jkkm4tTHfzDsb4FSxQV0-64" value="" style="endArrow=none;html=1;rounded=0;entryX=0;entryY=0.5;entryDx=0;entryDy=0;exitX=1;exitY=0.5;exitDx=0;exitDy=0;" parent="1" source="jkkm4tTHfzDsb4FSxQV0-50" target="jkkm4tTHfzDsb4FSxQV0-60" edge="1">
          <mxGeometry width="50" height="50" relative="1" as="geometry">
            <mxPoint x="4470" y="375" as="sourcePoint" />
            <mxPoint x="4560" y="240" as="targetPoint" />
          </mxGeometry>
        </mxCell>
        <mxCell id="jkkm4tTHfzDsb4FSxQV0-65" value="" style="rhombus;whiteSpace=wrap;html=1;fillColor=#ffff88;strokeColor=#36393d;" parent="1" vertex="1">
          <mxGeometry x="4750" y="460" width="100" height="60" as="geometry" />
        </mxCell>
        <mxCell id="jkkm4tTHfzDsb4FSxQV0-66" value="" style="endArrow=none;html=1;rounded=0;entryX=0.5;entryY=0;entryDx=0;entryDy=0;" parent="1" target="jkkm4tTHfzDsb4FSxQV0-65" edge="1">
          <mxGeometry width="50" height="50" relative="1" as="geometry">
            <mxPoint x="4799.8099999999995" y="405" as="sourcePoint" />
            <mxPoint x="4799.8099999999995" y="455" as="targetPoint" />
            <Array as="points">
              <mxPoint x="4799.8099999999995" y="425" />
            </Array>
          </mxGeometry>
        </mxCell>
        <mxCell id="jkkm4tTHfzDsb4FSxQV0-67" value="" style="endArrow=none;html=1;rounded=0;exitX=0.696;exitY=0.011;exitDx=0;exitDy=0;entryX=0.5;entryY=1;entryDx=0;entryDy=0;exitPerimeter=0;" parent="1" source="jkkm4tTHfzDsb4FSxQV0-28" target="jkkm4tTHfzDsb4FSxQV0-65" edge="1">
          <mxGeometry width="50" height="50" relative="1" as="geometry">
            <mxPoint x="4510" y="410" as="sourcePoint" />
            <mxPoint x="4560" y="360" as="targetPoint" />
            <Array as="points">
              <mxPoint x="4800" y="530" />
            </Array>
          </mxGeometry>
        </mxCell>
        <mxCell id="jkkm4tTHfzDsb4FSxQV0-68" value="Paid by" style="text;html=1;align=center;verticalAlign=middle;whiteSpace=wrap;rounded=0;" parent="1" vertex="1">
          <mxGeometry x="4770" y="475" width="60" height="30" as="geometry" />
        </mxCell>
        <mxCell id="jkkm4tTHfzDsb4FSxQV0-69" value="" style="rhombus;whiteSpace=wrap;html=1;fillColor=#ffff88;strokeColor=#36393d;" parent="1" vertex="1">
          <mxGeometry x="4300" y="30" width="90" height="70" as="geometry" />
        </mxCell>
        <mxCell id="jkkm4tTHfzDsb4FSxQV0-70" value="Oversees" style="text;html=1;align=center;verticalAlign=middle;whiteSpace=wrap;rounded=0;" parent="1" vertex="1">
          <mxGeometry x="4310" y="50" width="60" height="30" as="geometry" />
        </mxCell>
        <mxCell id="jkkm4tTHfzDsb4FSxQV0-71" value="" style="endArrow=none;html=1;rounded=0;entryX=0;entryY=0.5;entryDx=0;entryDy=0;exitX=0.5;exitY=0;exitDx=0;exitDy=0;" parent="1" source="jkkm4tTHfzDsb4FSxQV0-69" target="jkkm4tTHfzDsb4FSxQV0-2" edge="1">
          <mxGeometry width="50" height="50" relative="1" as="geometry">
            <mxPoint x="4590" y="180" as="sourcePoint" />
            <mxPoint x="4640" y="130" as="targetPoint" />
            <Array as="points">
              <mxPoint x="4345" y="-210" />
            </Array>
          </mxGeometry>
        </mxCell>
        <mxCell id="jkkm4tTHfzDsb4FSxQV0-72" value="" style="endArrow=none;html=1;rounded=0;entryX=1;entryY=0.5;entryDx=0;entryDy=0;exitX=0.4;exitY=0;exitDx=0;exitDy=0;exitPerimeter=0;" parent="1" source="jkkm4tTHfzDsb4FSxQV0-43" target="jkkm4tTHfzDsb4FSxQV0-69" edge="1">
          <mxGeometry width="50" height="50" relative="1" as="geometry">
            <mxPoint x="4610" y="170" as="sourcePoint" />
            <mxPoint x="4620" y="120" as="targetPoint" />
            <Array as="points">
              <mxPoint x="4610" y="65" />
            </Array>
          </mxGeometry>
        </mxCell>
        <mxCell id="jkkm4tTHfzDsb4FSxQV0-73" value="" style="rhombus;whiteSpace=wrap;html=1;fillColor=#ffff88;strokeColor=#36393d;" parent="1" vertex="1">
          <mxGeometry x="4290" y="160" width="100" height="60" as="geometry" />
        </mxCell>
        <mxCell id="jkkm4tTHfzDsb4FSxQV0-74" value="" style="endArrow=none;html=1;rounded=0;exitX=1;exitY=0.5;exitDx=0;exitDy=0;entryX=0;entryY=0.5;entryDx=0;entryDy=0;" parent="1" source="jkkm4tTHfzDsb4FSxQV0-73" target="jkkm4tTHfzDsb4FSxQV0-43" edge="1">
          <mxGeometry width="50" height="50" relative="1" as="geometry">
            <mxPoint x="4780" y="250" as="sourcePoint" />
            <mxPoint x="4570" y="200" as="targetPoint" />
          </mxGeometry>
        </mxCell>
        <mxCell id="jkkm4tTHfzDsb4FSxQV0-75" value="" style="endArrow=none;html=1;rounded=0;exitX=0.5;exitY=0;exitDx=0;exitDy=0;entryX=0.5;entryY=1;entryDx=0;entryDy=0;" parent="1" source="jkkm4tTHfzDsb4FSxQV0-50" target="jkkm4tTHfzDsb4FSxQV0-73" edge="1">
          <mxGeometry width="50" height="50" relative="1" as="geometry">
            <mxPoint x="4780" y="250" as="sourcePoint" />
            <mxPoint x="4830" y="200" as="targetPoint" />
          </mxGeometry>
        </mxCell>
        <mxCell id="jkkm4tTHfzDsb4FSxQV0-76" value="Made By" style="text;html=1;align=center;verticalAlign=middle;whiteSpace=wrap;rounded=0;" parent="1" vertex="1">
          <mxGeometry x="4310" y="175" width="60" height="30" as="geometry" />
        </mxCell>
        <mxCell id="jkkm4tTHfzDsb4FSxQV0-77" value="" style="rhombus;whiteSpace=wrap;html=1;fillColor=#ffff88;strokeColor=#36393d;" parent="1" vertex="1">
          <mxGeometry x="4470" y="650" width="100" height="60" as="geometry" />
        </mxCell>
        <mxCell id="jkkm4tTHfzDsb4FSxQV0-78" value="Makes" style="text;html=1;align=center;verticalAlign=middle;whiteSpace=wrap;rounded=0;" parent="1" vertex="1">
          <mxGeometry x="4490" y="667.5" width="60" height="25" as="geometry" />
        </mxCell>
        <mxCell id="jkkm4tTHfzDsb4FSxQV0-79" value="" style="endArrow=none;html=1;rounded=0;entryX=0;entryY=0.5;entryDx=0;entryDy=0;exitX=1;exitY=0.5;exitDx=0;exitDy=0;" parent="1" source="jkkm4tTHfzDsb4FSxQV0-77" target="jkkm4tTHfzDsb4FSxQV0-28" edge="1">
          <mxGeometry width="50" height="50" relative="1" as="geometry">
            <mxPoint x="4660" y="550" as="sourcePoint" />
            <mxPoint x="4710" y="500" as="targetPoint" />
          </mxGeometry>
        </mxCell>
        <mxCell id="jkkm4tTHfzDsb4FSxQV0-80" value="" style="endArrow=none;html=1;rounded=0;exitX=0.5;exitY=1;exitDx=0;exitDy=0;entryX=0;entryY=0.5;entryDx=0;entryDy=0;" parent="1" source="jkkm4tTHfzDsb4FSxQV0-50" target="jkkm4tTHfzDsb4FSxQV0-77" edge="1">
          <mxGeometry width="50" height="50" relative="1" as="geometry">
            <mxPoint x="4660" y="550" as="sourcePoint" />
            <mxPoint x="4710" y="500" as="targetPoint" />
            <Array as="points">
              <mxPoint x="4360" y="680" />
            </Array>
          </mxGeometry>
        </mxCell>
        <mxCell id="jkkm4tTHfzDsb4FSxQV0-81" value="" style="rhombus;whiteSpace=wrap;html=1;fillColor=#ffff88;strokeColor=#36393d;" parent="1" vertex="1">
          <mxGeometry x="4760" y="-30" width="90" height="60" as="geometry" />
        </mxCell>
        <mxCell id="jkkm4tTHfzDsb4FSxQV0-82" value="Maintains" style="text;html=1;align=center;verticalAlign=middle;whiteSpace=wrap;rounded=0;" parent="1" vertex="1">
          <mxGeometry x="4775" y="-15" width="60" height="30" as="geometry" />
        </mxCell>
        <mxCell id="jkkm4tTHfzDsb4FSxQV0-83" value="" style="rhombus;whiteSpace=wrap;html=1;fillColor=#ffff88;strokeColor=#36393d;" parent="1" vertex="1">
          <mxGeometry x="5200" y="115" width="90" height="60" as="geometry" />
        </mxCell>
        <mxCell id="jkkm4tTHfzDsb4FSxQV0-84" value="Added to" style="text;html=1;align=center;verticalAlign=middle;whiteSpace=wrap;rounded=0;" parent="1" vertex="1">
          <mxGeometry x="5215" y="130" width="60" height="30" as="geometry" />
        </mxCell>
        <mxCell id="jkkm4tTHfzDsb4FSxQV0-85" value="" style="endArrow=none;html=1;rounded=0;exitX=0.5;exitY=0;exitDx=0;exitDy=0;" parent="1" source="jkkm4tTHfzDsb4FSxQV0-83" edge="1">
          <mxGeometry width="50" height="50" relative="1" as="geometry">
            <mxPoint x="5246" y="125" as="sourcePoint" />
            <mxPoint x="5240" y="-210" as="targetPoint" />
          </mxGeometry>
        </mxCell>
        <mxCell id="jkkm4tTHfzDsb4FSxQV0-86" value="" style="endArrow=none;html=1;rounded=0;exitX=1;exitY=0.5;exitDx=0;exitDy=0;" parent="1" source="jkkm4tTHfzDsb4FSxQV0-17" edge="1">
          <mxGeometry width="50" height="50" relative="1" as="geometry">
            <mxPoint x="5040" y="-60" as="sourcePoint" />
            <mxPoint x="5240" y="-210" as="targetPoint" />
          </mxGeometry>
        </mxCell>
        <mxCell id="jkkm4tTHfzDsb4FSxQV0-87" value="" style="endArrow=none;html=1;rounded=0;exitX=1;exitY=0.5;exitDx=0;exitDy=0;" parent="1" source="jkkm4tTHfzDsb4FSxQV0-37" edge="1">
          <mxGeometry width="50" height="50" relative="1" as="geometry">
            <mxPoint x="4895" y="370" as="sourcePoint" />
            <mxPoint x="5250" y="370" as="targetPoint" />
          </mxGeometry>
        </mxCell>
        <mxCell id="jkkm4tTHfzDsb4FSxQV0-88" value="" style="endArrow=none;html=1;rounded=0;entryX=0.5;entryY=1;entryDx=0;entryDy=0;" parent="1" target="jkkm4tTHfzDsb4FSxQV0-83" edge="1">
          <mxGeometry width="50" height="50" relative="1" as="geometry">
            <mxPoint x="5250" y="370" as="sourcePoint" />
            <mxPoint x="5290" y="270" as="targetPoint" />
          </mxGeometry>
        </mxCell>
        <mxCell id="jkkm4tTHfzDsb4FSxQV0-89" value="customerID" style="ellipse;whiteSpace=wrap;html=1;fillColor=#f8cecc;strokeColor=#b85450;" parent="1" vertex="1">
          <mxGeometry x="5040" y="410" width="90" height="40" as="geometry" />
        </mxCell>
        <mxCell id="jkkm4tTHfzDsb4FSxQV0-90" style="exitX=1;exitY=0.5;exitDx=0;exitDy=0;entryX=0.03;entryY=0.275;entryDx=0;entryDy=0;entryPerimeter=0;" parent="1" source="jkkm4tTHfzDsb4FSxQV0-37" target="jkkm4tTHfzDsb4FSxQV0-89" edge="1">
          <mxGeometry relative="1" as="geometry">
            <mxPoint x="4970" y="400" as="sourcePoint" />
            <mxPoint x="5010" y="420" as="targetPoint" />
            <Array as="points" />
          </mxGeometry>
        </mxCell>
        <mxCell id="jkkm4tTHfzDsb4FSxQV0-91" value="ISBN" style="ellipse;whiteSpace=wrap;html=1;fillColor=#f8cecc;strokeColor=#b85450;" parent="1" vertex="1">
          <mxGeometry x="4580" y="435" width="60" height="40" as="geometry" />
        </mxCell>
        <mxCell id="jkkm4tTHfzDsb4FSxQV0-92" value="Price" style="ellipse;whiteSpace=wrap;html=1;fillColor=#f8cecc;strokeColor=#b85450;" parent="1" vertex="1">
          <mxGeometry x="4645" y="490" width="60" height="40" as="geometry" />
        </mxCell>
        <mxCell id="jkkm4tTHfzDsb4FSxQV0-93" value="" style="endArrow=classic;html=1;rounded=0;entryX=0.673;entryY=0.035;entryDx=0;entryDy=0;entryPerimeter=0;exitX=0.25;exitY=1;exitDx=0;exitDy=0;" parent="1" source="jkkm4tTHfzDsb4FSxQV0-37" target="jkkm4tTHfzDsb4FSxQV0-92" edge="1">
          <mxGeometry width="50" height="50" relative="1" as="geometry">
            <mxPoint x="4780" y="410" as="sourcePoint" />
            <mxPoint x="4670" y="457.5" as="targetPoint" />
          </mxGeometry>
        </mxCell>
        <mxCell id="jkkm4tTHfzDsb4FSxQV0-94" value="" style="endArrow=classic;html=1;rounded=0;exitX=1;exitY=0.5;exitDx=0;exitDy=0;" parent="1" source="jkkm4tTHfzDsb4FSxQV0-28" target="jkkm4tTHfzDsb4FSxQV0-95" edge="1">
          <mxGeometry width="50" height="50" relative="1" as="geometry">
            <mxPoint x="5040" y="730" as="sourcePoint" />
            <mxPoint x="5060" y="760" as="targetPoint" />
          </mxGeometry>
        </mxCell>
        <mxCell id="jkkm4tTHfzDsb4FSxQV0-95" value="CustomerID" style="ellipse;whiteSpace=wrap;html=1;fillColor=#f8cecc;strokeColor=#b85450;" parent="1" vertex="1">
          <mxGeometry x="4990" y="790" width="70" height="40" as="geometry" />
        </mxCell>
        <mxCell id="jkkm4tTHfzDsb4FSxQV0-96" value="" style="endArrow=classic;html=1;rounded=0;exitX=0;exitY=0.75;exitDx=0;exitDy=0;entryX=1;entryY=0;entryDx=0;entryDy=0;" parent="1" source="jkkm4tTHfzDsb4FSxQV0-50" target="jkkm4tTHfzDsb4FSxQV0-97" edge="1">
          <mxGeometry width="50" height="50" relative="1" as="geometry">
            <mxPoint x="4270" y="380" as="sourcePoint" />
            <mxPoint x="4120" y="430" as="targetPoint" />
          </mxGeometry>
        </mxCell>
        <mxCell id="jkkm4tTHfzDsb4FSxQV0-97" value="uPassword" style="ellipse;whiteSpace=wrap;html=1;fillColor=#f8cecc;strokeColor=#b85450;" parent="1" vertex="1">
          <mxGeometry x="4080" y="410" width="70" height="40" as="geometry" />
        </mxCell>
        <mxCell id="jkkm4tTHfzDsb4FSxQV0-98" value="" style="endArrow=none;html=1;rounded=0;entryX=0;entryY=0.5;entryDx=0;entryDy=0;exitX=1;exitY=0.5;exitDx=0;exitDy=0;" parent="1" source="jkkm4tTHfzDsb4FSxQV0-2" target="jkkm4tTHfzDsb4FSxQV0-11" edge="1">
          <mxGeometry width="50" height="50" relative="1" as="geometry">
            <mxPoint x="4660" y="-180" as="sourcePoint" />
            <mxPoint x="4710" y="-230" as="targetPoint" />
          </mxGeometry>
        </mxCell>
        <mxCell id="jkkm4tTHfzDsb4FSxQV0-99" value="" style="endArrow=none;html=1;rounded=0;entryX=0.5;entryY=1;entryDx=0;entryDy=0;" parent="1" target="jkkm4tTHfzDsb4FSxQV0-58" edge="1">
          <mxGeometry width="50" height="50" relative="1" as="geometry">
            <mxPoint x="4945" y="30" as="sourcePoint" />
            <mxPoint x="5040" y="10" as="targetPoint" />
          </mxGeometry>
        </mxCell>
        <mxCell id="jkkm4tTHfzDsb4FSxQV0-100" value="" style="endArrow=none;html=1;rounded=0;exitX=0.5;exitY=0;exitDx=0;exitDy=0;" parent="1" source="jkkm4tTHfzDsb4FSxQV0-12" edge="1">
          <mxGeometry width="50" height="50" relative="1" as="geometry">
            <mxPoint x="5002.607391304348" y="114.99999999999977" as="sourcePoint" />
            <mxPoint x="5010" y="30" as="targetPoint" />
          </mxGeometry>
        </mxCell>
        <mxCell id="jkkm4tTHfzDsb4FSxQV0-101" value="" style="endArrow=none;html=1;rounded=0;" parent="1" edge="1">
          <mxGeometry width="50" height="50" relative="1" as="geometry">
            <mxPoint x="4940" y="30" as="sourcePoint" />
            <mxPoint x="5010" y="30" as="targetPoint" />
          </mxGeometry>
        </mxCell>
        <mxCell id="jkkm4tTHfzDsb4FSxQV0-102" value="" style="endArrow=none;html=1;rounded=0;entryX=0.5;entryY=0;entryDx=0;entryDy=0;exitX=1;exitY=1;exitDx=0;exitDy=0;" parent="1" source="jkkm4tTHfzDsb4FSxQV0-2" target="jkkm4tTHfzDsb4FSxQV0-81" edge="1">
          <mxGeometry width="50" height="50" relative="1" as="geometry">
            <mxPoint x="4680" y="-150" as="sourcePoint" />
            <mxPoint x="4630" y="-100" as="targetPoint" />
          </mxGeometry>
        </mxCell>
        <mxCell id="jkkm4tTHfzDsb4FSxQV0-103" value="" style="endArrow=none;html=1;rounded=0;entryX=0.5;entryY=1;entryDx=0;entryDy=0;" parent="1" source="jkkm4tTHfzDsb4FSxQV0-12" target="jkkm4tTHfzDsb4FSxQV0-81" edge="1">
          <mxGeometry width="50" height="50" relative="1" as="geometry">
            <mxPoint x="4830" y="110" as="sourcePoint" />
            <mxPoint x="4815" y="31" as="targetPoint" />
          </mxGeometry>
        </mxCell>
        <mxCell id="jkkm4tTHfzDsb4FSxQV0-104" value="" style="endArrow=classic;html=1;rounded=0;entryX=0;entryY=1;entryDx=0;entryDy=0;" parent="1" target="jkkm4tTHfzDsb4FSxQV0-105" edge="1">
          <mxGeometry width="50" height="50" relative="1" as="geometry">
            <mxPoint x="4640" y="160" as="sourcePoint" />
            <mxPoint x="4690" y="110" as="targetPoint" />
          </mxGeometry>
        </mxCell>
        <mxCell id="jkkm4tTHfzDsb4FSxQV0-105" value="ISBN" style="ellipse;whiteSpace=wrap;html=1;fillColor=#f8cecc;strokeColor=#b85450;" parent="1" vertex="1">
          <mxGeometry x="4645" y="75" width="60" height="40" as="geometry" />
        </mxCell>
        <mxCell id="jkkm4tTHfzDsb4FSxQV0-106" value="CustomerID" style="ellipse;whiteSpace=wrap;html=1;fillColor=#f8cecc;strokeColor=#b85450;" parent="1" vertex="1">
          <mxGeometry x="4705" y="220" width="70" height="40" as="geometry" />
        </mxCell>
        <mxCell id="jkkm4tTHfzDsb4FSxQV0-107" value="" style="endArrow=classic;html=1;rounded=0;exitX=1;exitY=0.5;exitDx=0;exitDy=0;" parent="1" source="jkkm4tTHfzDsb4FSxQV0-43" target="jkkm4tTHfzDsb4FSxQV0-106" edge="1">
          <mxGeometry width="50" height="50" relative="1" as="geometry">
            <mxPoint x="4690" y="180" as="sourcePoint" />
            <mxPoint x="4740" y="130" as="targetPoint" />
          </mxGeometry>
        </mxCell>
        <mxCell id="jkkm4tTHfzDsb4FSxQV0-108" value="Amount" style="ellipse;whiteSpace=wrap;html=1;fillColor=#f8cecc;strokeColor=#b85450;" parent="1" vertex="1">
          <mxGeometry x="4710" y="140" width="60" height="40" as="geometry" />
        </mxCell>
        <mxCell id="viwkElXMkvqY3WvH5bWG-15" value="" style="rhombus;whiteSpace=wrap;html=1;fillColor=#ffff88;strokeColor=#36393d;" parent="1" vertex="1">
          <mxGeometry x="635" y="50" width="90" height="70" as="geometry" />
        </mxCell>
        <mxCell id="viwkElXMkvqY3WvH5bWG-16" value="Oversees" style="text;html=1;align=center;verticalAlign=middle;whiteSpace=wrap;rounded=0;" parent="1" vertex="1">
          <mxGeometry x="650" y="70" width="60" height="30" as="geometry" />
        </mxCell>
        <mxCell id="viwkElXMkvqY3WvH5bWG-29" style="rounded=0;orthogonalLoop=1;jettySize=auto;html=1;entryX=1;entryY=1;entryDx=0;entryDy=0;" parent="1" source="viwkElXMkvqY3WvH5bWG-22" target="viwkElXMkvqY3WvH5bWG-34" edge="1">
          <mxGeometry relative="1" as="geometry">
            <mxPoint x="272" y="3" as="targetPoint" />
          </mxGeometry>
        </mxCell>
        <mxCell id="viwkElXMkvqY3WvH5bWG-31" style="rounded=0;orthogonalLoop=1;jettySize=auto;html=1;entryX=1;entryY=0.5;entryDx=0;entryDy=0;" parent="1" source="viwkElXMkvqY3WvH5bWG-22" target="viwkElXMkvqY3WvH5bWG-30" edge="1">
          <mxGeometry relative="1" as="geometry" />
        </mxCell>
        <mxCell id="viwkElXMkvqY3WvH5bWG-36" style="rounded=0;orthogonalLoop=1;jettySize=auto;html=1;" parent="1" source="viwkElXMkvqY3WvH5bWG-22" target="viwkElXMkvqY3WvH5bWG-35" edge="1">
          <mxGeometry relative="1" as="geometry" />
        </mxCell>
        <mxCell id="viwkElXMkvqY3WvH5bWG-22" value="Address" style="ellipse;whiteSpace=wrap;html=1;fillColor=#f8cecc;strokeColor=#b85450;" parent="1" vertex="1">
          <mxGeometry x="325" y="62.5" width="60" height="45" as="geometry" />
        </mxCell>
        <mxCell id="viwkElXMkvqY3WvH5bWG-30" value="City" style="ellipse;whiteSpace=wrap;html=1;fillColor=#d5e8d4;strokeColor=#82b366;" parent="1" vertex="1">
          <mxGeometry x="210" y="80" width="60" height="45" as="geometry" />
        </mxCell>
        <mxCell id="viwkElXMkvqY3WvH5bWG-34" value="StreetNo" style="ellipse;whiteSpace=wrap;html=1;fillColor=#d5e8d4;strokeColor=#82b366;" parent="1" vertex="1">
          <mxGeometry x="210" y="17.5" width="60" height="45" as="geometry" />
        </mxCell>
        <mxCell id="viwkElXMkvqY3WvH5bWG-35" value="HouseNo" style="ellipse;whiteSpace=wrap;html=1;fillColor=#d5e8d4;strokeColor=#82b366;" parent="1" vertex="1">
          <mxGeometry x="220" y="-35" width="60" height="45" as="geometry" />
        </mxCell>
        <mxCell id="viwkElXMkvqY3WvH5bWG-40" value="" style="rhombus;whiteSpace=wrap;html=1;fillColor=#ffff88;strokeColor=#36393d;" parent="1" vertex="1">
          <mxGeometry x="590" y="-150" width="90" height="70" as="geometry" />
        </mxCell>
        <mxCell id="viwkElXMkvqY3WvH5bWG-41" value="Oversees" style="text;html=1;align=center;verticalAlign=middle;whiteSpace=wrap;rounded=0;" parent="1" vertex="1">
          <mxGeometry x="605" y="-130" width="60" height="30" as="geometry" />
        </mxCell>
        <mxCell id="viwkElXMkvqY3WvH5bWG-46" value="" style="ellipse;whiteSpace=wrap;html=1;fillColor=none;fontStyle=0" parent="1" vertex="1">
          <mxGeometry x="175.5" y="160.5" width="69" height="49" as="geometry" />
        </mxCell>
        <mxCell id="XFWJKoRLsI-GRv0qEJuy-6" value="" style="edgeStyle=orthogonalEdgeStyle;rounded=0;orthogonalLoop=1;jettySize=auto;html=1;endArrow=none;endFill=0;" edge="1" parent="1" source="XFWJKoRLsI-GRv0qEJuy-1" target="XFWJKoRLsI-GRv0qEJuy-5">
          <mxGeometry relative="1" as="geometry" />
        </mxCell>
        <mxCell id="XFWJKoRLsI-GRv0qEJuy-13" style="rounded=0;orthogonalLoop=1;jettySize=auto;html=1;entryX=1;entryY=0.5;entryDx=0;entryDy=0;" edge="1" parent="1" source="XFWJKoRLsI-GRv0qEJuy-1" target="XFWJKoRLsI-GRv0qEJuy-12">
          <mxGeometry relative="1" as="geometry" />
        </mxCell>
        <mxCell id="XFWJKoRLsI-GRv0qEJuy-15" style="rounded=0;orthogonalLoop=1;jettySize=auto;html=1;entryX=1;entryY=0;entryDx=0;entryDy=0;" edge="1" parent="1" source="XFWJKoRLsI-GRv0qEJuy-1" target="XFWJKoRLsI-GRv0qEJuy-14">
          <mxGeometry relative="1" as="geometry" />
        </mxCell>
        <mxCell id="XFWJKoRLsI-GRv0qEJuy-16" style="rounded=0;orthogonalLoop=1;jettySize=auto;html=1;entryX=1;entryY=0.5;entryDx=0;entryDy=0;" edge="1" parent="1" source="XFWJKoRLsI-GRv0qEJuy-1" target="XFWJKoRLsI-GRv0qEJuy-10">
          <mxGeometry relative="1" as="geometry" />
        </mxCell>
        <mxCell id="XFWJKoRLsI-GRv0qEJuy-26" style="rounded=0;orthogonalLoop=1;jettySize=auto;html=1;entryX=0;entryY=0.5;entryDx=0;entryDy=0;endArrow=none;endFill=0;" edge="1" parent="1" source="XFWJKoRLsI-GRv0qEJuy-1" target="XFWJKoRLsI-GRv0qEJuy-25">
          <mxGeometry relative="1" as="geometry" />
        </mxCell>
        <mxCell id="XFWJKoRLsI-GRv0qEJuy-29" style="rounded=0;orthogonalLoop=1;jettySize=auto;html=1;entryX=0.5;entryY=1;entryDx=0;entryDy=0;" edge="1" parent="1" source="XFWJKoRLsI-GRv0qEJuy-1" target="XFWJKoRLsI-GRv0qEJuy-28">
          <mxGeometry relative="1" as="geometry" />
        </mxCell>
        <mxCell id="XFWJKoRLsI-GRv0qEJuy-1" value="Loan" style="rounded=0;whiteSpace=wrap;html=1;fillColor=#a2d4e6;strokeColor=#63919f;" vertex="1" parent="1">
          <mxGeometry x="930" y="360" width="100" height="60" as="geometry" />
        </mxCell>
        <mxCell id="XFWJKoRLsI-GRv0qEJuy-7" style="rounded=0;orthogonalLoop=1;jettySize=auto;html=1;endArrow=none;endFill=0;" edge="1" parent="1" source="XFWJKoRLsI-GRv0qEJuy-5">
          <mxGeometry relative="1" as="geometry">
            <mxPoint x="980" y="730" as="targetPoint" />
          </mxGeometry>
        </mxCell>
        <mxCell id="XFWJKoRLsI-GRv0qEJuy-5" value="Brrows" style="rhombus;whiteSpace=wrap;html=1;fillColor=#FFFF88;strokeColor=#b46504;rounded=0;" vertex="1" parent="1">
          <mxGeometry x="940" y="490" width="80" height="80" as="geometry" />
        </mxCell>
        <mxCell id="XFWJKoRLsI-GRv0qEJuy-8" value="" style="endArrow=none;html=1;rounded=0;" edge="1" parent="1">
          <mxGeometry width="50" height="50" relative="1" as="geometry">
            <mxPoint x="130" y="730" as="sourcePoint" />
            <mxPoint x="980" y="730" as="targetPoint" />
          </mxGeometry>
        </mxCell>
        <mxCell id="XFWJKoRLsI-GRv0qEJuy-10" value="&lt;u&gt;LoanID&lt;/u&gt;" style="ellipse;whiteSpace=wrap;html=1;fillColor=#f8cecc;strokeColor=#b85450;" vertex="1" parent="1">
          <mxGeometry x="820" y="320" width="60" height="40" as="geometry" />
        </mxCell>
        <mxCell id="XFWJKoRLsI-GRv0qEJuy-12" value="BrrowDate" style="ellipse;whiteSpace=wrap;html=1;fillColor=#f8cecc;strokeColor=#b85450;" vertex="1" parent="1">
          <mxGeometry x="800" y="380" width="60" height="40" as="geometry" />
        </mxCell>
        <mxCell id="XFWJKoRLsI-GRv0qEJuy-14" value="ReturnDate" style="ellipse;whiteSpace=wrap;html=1;fillColor=#f8cecc;strokeColor=#b85450;" vertex="1" parent="1">
          <mxGeometry x="810" y="440" width="70" height="40" as="geometry" />
        </mxCell>
        <mxCell id="XFWJKoRLsI-GRv0qEJuy-25" value="Is Loaned" style="rhombus;whiteSpace=wrap;html=1;fillColor=#FFFF88;strokeColor=#b46504;rounded=0;" vertex="1" parent="1">
          <mxGeometry x="1110" y="350" width="80" height="80" as="geometry" />
        </mxCell>
        <mxCell id="XFWJKoRLsI-GRv0qEJuy-28" value="LoanAmount" style="ellipse;whiteSpace=wrap;html=1;fillColor=#f8cecc;strokeColor=#b85450;" vertex="1" parent="1">
          <mxGeometry x="850" y="260" width="75" height="30" as="geometry" />
        </mxCell>
        <mxCell id="XFWJKoRLsI-GRv0qEJuy-30" value="" style="rhombus;whiteSpace=wrap;html=1;fillColor=none;" vertex="1" parent="1">
          <mxGeometry x="935" y="480" width="90" height="100" as="geometry" />
        </mxCell>
        <mxCell id="XFWJKoRLsI-GRv0qEJuy-31" value="" style="rhombus;whiteSpace=wrap;html=1;fillColor=none;" vertex="1" parent="1">
          <mxGeometry x="1105" y="340" width="90" height="100" as="geometry" />
        </mxCell>
        <mxCell id="XFWJKoRLsI-GRv0qEJuy-32" value="" style="ellipse;whiteSpace=wrap;html=1;fillColor=none;fontStyle=0" vertex="1" parent="1">
          <mxGeometry x="485.5" y="-484.5" width="69" height="49" as="geometry" />
        </mxCell>
        <mxCell id="XFWJKoRLsI-GRv0qEJuy-33" value="loancopies" style="ellipse;whiteSpace=wrap;html=1;fillColor=#f8cecc;strokeColor=#b85450;dashed=1;" vertex="1" parent="1">
          <mxGeometry x="1000" y="-420" width="70" height="40" as="geometry" />
        </mxCell>
      </root>
    </mxGraphModel>
  </diagram>
</mxfile>
